<svg width="302" height="512" viewBox="0 0 302 512" fill="none" xmlns="http://www.w3.org/2000/svg">
<path d="M101.682 256.108L293.22 64.562C298.494 59.3004 301.395 52.2656 301.395 44.7646C301.395 37.2594 298.494 30.2288 293.22 24.959L276.436 8.18367C271.171 2.9055 264.132 0 256.631 0C249.13 0 242.099 2.9055 236.829 8.18367L8.7726 236.236C3.48194 241.522 0.584767 248.586 0.60558 256.096C0.584767 263.638 3.47778 270.694 8.7726 275.985L236.617 503.816C241.887 509.094 248.917 512 256.422 512C263.923 512 270.954 509.094 276.228 503.816L293.008 487.041C303.926 476.122 303.926 458.348 293.008 447.434L101.682 256.108Z" fill="white"/>
</svg>
